<?xml version="1.0" standalone="no"?>
<!DOCTYPE svg PUBLIC "-//W3C//DTD SVG 20010904//EN"
 "http://www.w3.org/TR/2001/REC-SVG-20010904/DTD/svg10.dtd">
<svg version="1.0" xmlns="http://www.w3.org/2000/svg"
 width="668.000000pt" height="374.000000pt" viewBox="0 0 668.000000 374.000000"
 preserveAspectRatio="xMidYMid meet">

<g transform="translate(0.000000,374.000000) scale(0.100000,-0.100000)"
fill="#000000" stroke="none">
<path d="M1710 2092 c-18 -14 -22 -25 -16 -45 7 -29 33 -35 64 -16 15 10 27 5
68 -24 27 -20 57 -43 66 -51 34 -30 64 -39 138 -42 100 -5 142 -13 163 -31 23
-22 22 2 -1 25 -15 15 -41 20 -120 25 -55 4 -113 12 -128 18 -26 9 -73 47
-163 128 -41 36 -42 37 -71 13z"/>
<path d="M1703 1693 c-16 -6 -17 -45 -1 -61 17 -17 44 -15 68 5 20 17 20 17
-2 40 -21 22 -39 27 -65 16z"/>
</g>
</svg>
